<svg xmlns="http://www.w3.org/2000/svg" data-name="Layer 1" width="767.93078" height="810.1362" viewBox="0 0 767.93078 810.1362" xmlns:xlink="http://www.w3.org/1999/xlink"><path d="M779.86723,824.97558,732.085,794.47666l62.23853,17.81942c39.1-37.35336,67.74173-89.10492,67.74173-89.10492S757.344,659.24541,692.8369,676.30945,615.9507,737.68,628.46444,784.98556c12.51354,47.30481,45.18126,79.695,109.68832,62.631C752.51072,843.81845,766.61353,835.54089,779.86723,824.97558Z" transform="translate(-216.03461 -44.9319)" fill="#f2f2f2"/><path d="M727.33279,784.63967l-3.17958.8411c-37.00957,9.588-67.49573,10.983-91.03676,4.12381-.34487-.094-.67816-.208-1.02307-.30206l.472-1.59012.473-1.523c25.5163,7.76826,57.78,4.37043,90.06309-3.98416,1.04312-.25908,2.1019-.5223,3.15234-.817,13.63489-3.65741,27.21888-8.14337,40.2762-13.029,1.014-.36928,2.03943-.75845,3.06489-1.14762,17.20136-6.53766,33.39916-13.68568,47.36088-20.30953.989-.46371,1.97371-.94316,2.94277-1.41847,23.58568-11.30867,40.29914-20.90049,43.99014-23.05586.45467-.25494.7014-.4045.76016-.4369l.82061,1.383.01992.01159.82478,1.39873c-.05885.03242-.88531.53734-2.43726,1.41941-5.78778,3.33318-21.55162,12.18541-42.7354,22.38708-.95747.45538-1.94229.93485-2.93118,1.39854-11.32456,5.38727-24.06257,11.098-37.58232,16.52706q-5.09055,2.05391-10.07673,3.92877c-1.02131.40484-2.04677.794-3.06074,1.16328Q746.31906,779.53315,727.33279,784.63967Z" transform="translate(-216.03461 -44.9319)" fill="#fff"/><path d="M821.14143,748.59067c-.42068-1.01713-.84554-2.05-1.243-3.107a89.82486,89.82486,0,0,1-2.805-8.75709,87.37678,87.37678,0,0,1-1.41212-38.7007c-1.00909-.44042-2.01828-.88081-3.0473-1.33281a90.61209,90.61209,0,0,0,1.31125,40.86629,92.94041,92.94041,0,0,0,3.01041,9.34278c.39334,1.04122.8182,2.0741,1.25454,3.08708a89.84908,89.84908,0,0,0,14.24434,23.0955q1.03-1.35878,2.02535-2.65792A87.0766,87.0766,0,0,1,821.14143,748.59067Z" transform="translate(-216.03461 -44.9319)" fill="#fff"/><path d="M770.5512,770.445q-.52536-1.6042-.95637-3.23338c-.10321-.32643-.19481-.67268-.28226-1.00327a87.8402,87.8402,0,0,1,17.97073-79.33173c-1.0952-.38392-2.19052-.76791-3.29731-1.13191a91.1019,91.1019,0,0,0-17.82159,81.29642c.1166.44079.23318.88149.36554,1.31811.30721,1.09761.626,2.1754.96052,3.249A90.62009,90.62009,0,0,0,796.207,813.94951c.79541-.74938,1.59091-1.49878,2.38215-2.26391A87.23709,87.23709,0,0,1,770.5512,770.445Z" transform="translate(-216.03461 -44.9319)" fill="#fff"/><path d="M727.33279,784.63967c-.38589-1.0768-.7403-2.162-1.07905-3.25141-.35947-1.16808-.70327-2.34031-1.01557-3.52088a88.07775,88.07775,0,0,1,39.66937-97.83808c-1.46249-.37106-2.90912-.74631-4.36317-1.08588A91.30319,91.30319,0,0,0,722.09,778.70017c.31229,1.18056.64035,2.357,1.0114,3.50512.32716,1.1093.68157,2.19453,1.05181,3.27548a91.03615,91.03615,0,0,0,43.7142,50.58456c1.07735-.63872,2.12648-1.32044,3.19135-2.00633A87.79368,87.79368,0,0,1,727.33279,784.63967Z" transform="translate(-216.03461 -44.9319)" fill="#fff"/><path d="M664.11047,849.18027,427.81976,754.069a57.66332,57.66332,0,0,1-31.92445-74.93938L636.64359,81.02408a57.66331,57.66331,0,0,1,74.93922-31.92481l236.29071,95.11127A57.66332,57.66332,0,0,1,979.798,219.14992L739.04969,817.25546A57.66331,57.66331,0,0,1,664.11047,849.18027Z" transform="translate(-216.03461 -44.9319)" fill="#3f3d56"/><path d="M938.55255,159.73373l-26.30172-10.58691a9.55332,9.55332,0,0,0-12.41735,5.28982,19.531,19.531,0,0,1-25.38714,10.81514L745.81,113.47334A19.531,19.531,0,0,1,734.995,88.08616a9.55331,9.55331,0,0,0-5.28991-12.41731l-23.19155-9.335a43.74083,43.74083,0,0,0-56.83745,24.21328l-239.037,593.854a43.74082,43.74082,0,0,0,24.213,56.83756l232.039,93.39991a43.74083,43.74083,0,0,0,56.83745-24.21329l239.037-593.854A43.74082,43.74082,0,0,0,938.55255,159.73373Z" transform="translate(-216.03461 -44.9319)" fill="#fff"/><path d="M848.57652,137.3707l-72.57041-29.21091a2.79388,2.79388,0,1,1,2.08649-5.1836L850.663,132.1871a2.79388,2.79388,0,1,1-2.08649,5.1836Z" transform="translate(-216.03461 -44.9319)" fill="#fff"/><circle cx="644.98908" cy="94.43728" r="2.23511" fill="#fff"/><path d="M908.44336,402.40627a5.03467,5.03467,0,0,1-2.78739-6.54309l36.72227-91.23138a5.029,5.029,0,0,1,9.33049,3.75569l-36.72228,91.23138A5.03468,5.03468,0,0,1,908.44336,402.40627Z" transform="translate(-216.03461 -44.9319)" fill="#3f3d56"/><path d="M590.34,196.059a5.03459,5.03459,0,0,1-2.7874-6.54309l8.346-20.7344a5.029,5.029,0,1,1,9.33048,3.75569l-8.346,20.7344A5.03459,5.03459,0,0,1,590.34,196.059Z" transform="translate(-216.03461 -44.9319)" fill="#3f3d56"/><path d="M574.8999,234.41767a5.03458,5.03458,0,0,1-2.78739-6.54309l8.346-20.7344a5.029,5.029,0,1,1,9.33048,3.75568l-8.346,20.73441A5.03459,5.03459,0,0,1,574.8999,234.41767Z" transform="translate(-216.03461 -44.9319)" fill="#3f3d56"/><path d="M796.61625,322.47516,696.23686,282.07064a8.39585,8.39585,0,0,1-4.64271-10.8952l24.09113-59.85106a8.39567,8.39567,0,0,1,10.89445-4.64281l100.37888,40.40431a8.39607,8.39607,0,0,1,4.64343,10.8939l-24.09141,59.85175A8.39752,8.39752,0,0,1,796.61625,322.47516Zm-71.72879-111.583a3.8493,3.8493,0,0,0-4.99326,2.12873l-24.08948,59.847a3.85,3.85,0,0,0,2.12886,4.99392l100.37168,40.40142a3.85147,3.85147,0,0,0,4.99673-2.12893L827.3912,256.288a3.84951,3.84951,0,0,0-2.12931-4.99331Z" transform="translate(-216.03461 -44.9319)" fill="#3f3d56"/><path d="M797.21147,284.39l-.00565-.00227L719.72,253.19831a5.675,5.675,0,0,1-3.53916-5.47l1.46272-36.29164a5.65564,5.65564,0,0,1,7.75369-5.02166l102.54592,41.07435a5.65536,5.65536,0,0,1,3.15859,7.31847l.33585.33662-3.21532,3.20267-.00041-.001-24.91215,24.80422A5.64167,5.64167,0,0,1,797.21147,284.39Z" transform="translate(-216.03461 -44.9319)" fill="#3f3d56"/><path d="M739.02548,287.0296,704.56335,273.158a3.45128,3.45128,0,0,1,2.57744-6.40329l34.46213,13.87163a3.45128,3.45128,0,0,1-2.57744,6.40329Z" transform="translate(-216.03461 -44.9319)" fill="#3f3d56"/><circle cx="544.32688" cy="222.17984" r="8.43607" fill="#fff"/><path d="M646.93577,694.33545l-100.3794-40.40452a8.39585,8.39585,0,0,1-4.6427-10.8952l24.09113-59.85106a8.39566,8.39566,0,0,1,10.89445-4.64281l100.37888,40.40431a8.39607,8.39607,0,0,1,4.64343,10.8939l-24.09141,59.85175A8.39753,8.39753,0,0,1,646.93577,694.33545ZM575.207,582.75249a3.84932,3.84932,0,0,0-4.99327,2.12873l-24.08948,59.84695a3.85,3.85,0,0,0,2.12887,4.99392L648.62478,690.1235a3.85147,3.85147,0,0,0,4.99673-2.12892l24.0892-59.84627a3.84949,3.84949,0,0,0-2.1293-4.9933Z" transform="translate(-216.03461 -44.9319)" fill="#3f3d56"/><path d="M647.531,656.25033l-.00566-.00228L570.03948,625.0586a5.675,5.675,0,0,1-3.53916-5.47l1.46271-36.29165a5.65565,5.65565,0,0,1,7.7537-5.02165l102.54592,41.07435a5.65535,5.65535,0,0,1,3.15859,7.31847l.33584.33662-3.21531,3.20267-.00041-.001L653.6292,655.01064A5.64165,5.64165,0,0,1,647.531,656.25033Z" transform="translate(-216.03461 -44.9319)" fill="#3f3d56"/><path d="M589.345,658.88989l-34.46214-13.87164a3.45128,3.45128,0,0,1,2.57744-6.40329l34.46214,13.87163a3.45128,3.45128,0,0,1-2.57744,6.4033Z" transform="translate(-216.03461 -44.9319)" fill="#3f3d56"/><circle cx="394.64639" cy="594.04012" r="8.43607" fill="#fff"/><circle cx="470.66772" cy="405.5543" r="92.27216" fill="#6c63ff"/><path d="M721.72076,508.38307,621.34137,467.97855a8.39587,8.39587,0,0,1-4.64271-10.8952l24.09114-59.85107a8.39567,8.39567,0,0,1,10.89445-4.64281l100.37887,40.40432a8.39606,8.39606,0,0,1,4.64343,10.8939l-24.09141,59.85174A8.39753,8.39753,0,0,1,721.72076,508.38307ZM649.992,396.80011a3.84931,3.84931,0,0,0-4.99327,2.12873l-24.08948,59.84695a3.85,3.85,0,0,0,2.12886,4.99392l100.37169,40.40141a3.85148,3.85148,0,0,0,4.99673-2.12892l24.0892-59.84627a3.8495,3.8495,0,0,0-2.12931-4.9933Z" transform="translate(-216.03461 -44.9319)" fill="#3f3d56"/><path d="M722.316,470.298l-.00565-.00228-77.48585-31.18945a5.675,5.675,0,0,1-3.53916-5.47l1.46271-36.29165a5.65564,5.65564,0,0,1,7.75369-5.02165l102.54592,41.07435a5.65535,5.65535,0,0,1,3.15859,7.31847l.33585.33662-3.21532,3.20267-.00041-.001L728.4142,469.05826A5.64167,5.64167,0,0,1,722.316,470.298Z" transform="translate(-216.03461 -44.9319)" fill="#3f3d56"/><path d="M664.13,472.9375l-34.46213-13.87163a3.45128,3.45128,0,0,1,2.57744-6.40329l34.46213,13.87163A3.45128,3.45128,0,0,1,664.13,472.9375Z" transform="translate(-216.03461 -44.9319)" fill="#3f3d56"/><path d="M437.35359,518.02848a12.07444,12.07444,0,0,0-14.13438-11.95888l-20.77628-37.54318-10.34317,19.75345L413.415,520.9031a12.13989,12.13989,0,0,0,23.9386-2.87462Z" transform="translate(-216.03461 -44.9319)" fill="#9e616a"/><path d="M423.93019,366.38432l-21.365-1.499s-2.63167-.35825-9.86921,11.11871-32.04642,69.67632-32.04642,69.67632l43.46417,63.0867,14.11687-14.053-25.23794-50.76325,24.19056-33.97455Z" transform="translate(-216.03461 -44.9319)" fill="#cacaca"/><path d="M659.46623,434.58542a10.48256,10.48256,0,0,1-14.03374-7.83711l-36.8543-5.42581,12.89709-14.43578,33.0202,7.3656a10.53939,10.53939,0,0,1,4.97075,20.3331Z" transform="translate(-216.03461 -44.9319)" fill="#9e616a"/><polygon points="301.766 793.352 317.515 793.352 325.007 732.606 301.764 732.607 301.766 793.352" fill="#9e616a"/><path d="M513.78372,833.14247l4.43283-.00018,17.30646-7.03813,9.27574,7.03706H544.8a19.76627,19.76627,0,0,1,19.7652,19.76489v.6423l-50.78055.00188Z" transform="translate(-216.03461 -44.9319)" fill="#2f2e41"/><polygon points="206.766 793.352 222.515 793.352 230.007 732.606 206.764 732.607 206.766 793.352" fill="#9e616a"/><path d="M418.78372,833.14247l4.43283-.00018,17.30646-7.03813,9.27574,7.03706H449.8a19.76627,19.76627,0,0,1,19.7652,19.76489v.6423l-50.78055.00188Z" transform="translate(-216.03461 -44.9319)" fill="#2f2e41"/><polygon points="212.841 494.222 202.432 556.966 205.932 758.659 231.551 758.659 270.911 545.313 299.224 755.152 324.983 754.037 337.838 542.227 326.287 488.162 212.841 494.222" fill="#2f2e41"/><path d="M523.006,352.55948l-27.42005-4.04-5.83-15.13684-38.63007-.05326L442.446,353.09383l-39.475,11.91826,32.705,112.34737S417.65214,519.111,422.085,519.28988s6.61679,6.51749,3.52483,9.84819-9.29587,1.21211-6.19391,6.27141a23.62439,23.62439,0,0,1,3.49565,9.03568s130.8001,27.92519,123.55434-8.08365c-.90072-4.47622-11.83-66.492-11.83-66.492s9.517-10.53061,5.44949-14.71565-1.91952-48.38432-1.91952-48.38432Z" transform="translate(-216.03461 -44.9319)" fill="#cacaca"/><polygon points="302.483 312.537 306.971 307.628 367.941 343.378 419.531 363.953 420.531 381.953 353.531 373.953 306.111 350.766 302.483 312.537" fill="#cacaca"/><path d="M501.56521,289.97139a32.27481,32.27481,0,0,1-32.27481,32.27482,33.13406,33.13406,0,0,1-7.54853-.8831,32.28692,32.28692,0,1,1,39.82334-31.39175Z" transform="translate(-216.03461 -44.9319)" fill="#9e616a"/><path d="M477.93538,316.14345l-23.18073,4.47085a15.01573,15.01573,0,0,1-6.62334.27478c-3.44824-.90783-5.75905-4.09-7.5231-7.18882a68.075,68.075,0,0,1-7.24428-47.81036c.79171-3.59514,2.48424-7.714,6.09195-8.44627,1.048-.21273,2.23322-.12871,3.06278-.80359,1.22168-.99387.81961-3.10067-.38024-4.12078a8.15727,8.15727,0,0,0-4.42539-1.43836,11.186,11.186,0,0,1,8.2728-3.93482l-6.20028-3.44548c2.98653-2.07231,6.999-1.88293,10.52214-.9876s6.91408,2.41152,10.53329,2.75086c4.54413.42606,9.02805-1.03416,13.55708-1.5985a35.54245,35.54245,0,0,1,34.33342,17.08879,15.4304,15.4304,0,0,1,2.28068,6.42719,7.39137,7.39137,0,0,1-2.30728,6.20829c-2.53834,2.13519-6.53677,1.82118-8.99573,4.04731-1.89522,1.71577-2.36711,4.48645-2.47419,7.04071s.01431,5.22346-1.08024,7.5338-3.95137,4.04752-6.23542,2.89911c-.10086-3.16417-3.74794-5.40436-6.84559-4.75109s-5.38539,3.47047-6.27667,6.5082-.62676,6.28366-.23856,9.42555.89264,6.32073.45725,9.45643" transform="translate(-216.03461 -44.9319)" fill="#2f2e41"/><circle cx="465.82982" cy="409.02425" r="8.43607" fill="#6c63ff"/><path d="M864.51931,855.0681h-647.294a1.19069,1.19069,0,0,1,0-2.38137h647.294a1.19068,1.19068,0,0,1,0,2.38137Z" transform="translate(-216.03461 -44.9319)" fill="#cacaca"/></svg>